<svg xmlns="http://www.w3.org/2000/svg" fill="none" viewBox="0 0 400 400" height="400" width="400"><g id="user-network-4--user-network"><g id="person"><path id="vector" fill="#38A1FF" d="M183.738 270.784c0.338 -2.742 -0.596 -5.354 -1.096 -8.012 -2.338 -12.43 -2.538 -15.16 8.856 -16.362 6.322 -0.668 12.694 -0.654 19.062 -0.632 3.712 0.012 4.838 1.226 5.65 4.85 1.9 8.468 8.578 49.506 8.814 52.122 0.136 1.518 0.198 2.994 0.296 4.512 0.338 5.314 -6.216 6.434 -11.47 7.296 -11.524 1.89 -14.434 2.518 -17.206 1.56 -1.474 -0.51 -2.688 -1.354 -3.248 -2.91 -0.29 -0.804 -0.212 -1.412 0.886 -1.392 0.632 0.012 1.308 -0.134 1.898 0 4.568 1.04 8.436 -0.88 12.314 -2.698 2.87 -1.346 4.956 -3.724 6.79 -6.242 1.544 -2.12 1.82 -4.096 0.126 -6.114 -0.462 -0.55 -0.546 -1.052 -0.21 -1.73 1.02 -2.062 0.75 -4.04 -0.844 -5.736 -0.552 -0.588 -0.628 -1.222 -0.548 -1.94 0.268 -2.402 -0.286 -4.486 -2.572 -5.65 -0.924 -0.47 -0.748 -1.266 -0.844 -2.066 -0.456 -3.844 -2.826 -5.486 -6.662 -4.892 -4.356 0.674 -4.132 1.484 -16.32 5.314 -1.858 0.584 -2.148 0.378 -2.572 -1.518 -0.378 -1.688 -0.042 -3.5 -0.802 -5.144 -0.406 -2.984 -0.556 -2.876 -0.296 -2.614l-0.002 -0.002Z" stroke-width="2"></path><path id="vector_2" fill="#191919" d="M212.458 299.502c-4.696 2.062 -8.218 5.79 -20.706 6.284 -3.332 0.132 -6.256 -0.708 -8.224 -3.794 -1.954 -3.07 -3.932 -6.154 -5.06 -9.7 -2.306 -7.252 0.44 -13.102 5.524 -18.892 -0.126 -0.928 -0.294 -1.814 -0.422 -2.742 -4.638 3.5 -8.154 7.758 -9.024 13.748 -0.258 1.77 -0.46 1.886 -2.15 1.476 -4.632 -1.126 -9.274 -1.202 -13.958 -0.422 -10.11 1.684 -18.136 6.93 -21.086 10.67 -0.786 0.996 0.142 2.098 1.138 1.644 3.686 -1.924 8.628 -6.254 19.356 -8.308 4.85 -0.928 9.648 -0.764 14.422 0.338 1.516 0.35 2.372 1.01 2.826 2.7 1.336 4.968 3.89 9.394 7.212 13.326 0.888 1.052 1.948 1.836 3.248 2.362 1.91 0.772 1.856 0.8 1.856 2.74 0 4.132 -1.27 7.968 -3.078 11.64 -2.158 4.382 -5.532 7.666 -9.236 10.754 -3.634 3.028 -7.506 5.234 -12.356 5.524 -18.352 1.098 -34.666 -8.444 -36.266 -29.098 -2.328 -30.032 17.178 -63.962 33.91 -80.034l-2.8 -3.31c-10.046 9.664 -16.362 19.15 -23.014 31.812 -5.272 10.036 -9.368 20.494 -11.302 31.754 -1.354 7.884 -2.108 15.772 -0.718 23.742 4.166 23.862 27.408 30.988 38.164 30.026 3.374 -0.302 6.79 -0.422 10.206 -1.73 -0.16 6.714 -1.214 38.414 0.21 42.93 0.292 0.928 0.97 1.48 1.982 1.308 2.67 -0.454 1.148 -3.774 1.266 -8.982 0.246 -10.964 0.162 -21.972 0.716 -32.936 0.084 -1.646 -0.558 -3.548 0.296 -4.934 0.834 -1.356 2.486 -2.196 3.752 -3.248 7.658 -6.346 12.504 -14.206 12.694 -24.332 0.008 -0.464 0.126 -0.97 0.126 -1.434 0 -0.8 0.506 -1.134 1.18 -1.264 2.56 -0.496 1.93 0.372 8.054 -0.674 4.094 -0.7 7.602 -2.61 10.838 -5.188 0.752 -0.598 1.374 -1.356 1.772 -2.192 0.242 -0.512 0.584 -1.09 0.21 -1.56 -0.43 -0.542 -1.058 -0.22 -1.56 0l0.002 -0.004Z" stroke-width="2"></path><path id="vector_3" fill="#191919" d="M367.224 285.966c-1.956 -13.784 -9.37 -32.878 -21.886 -49.214 -11.096 -14.482 -29.762 -28.916 -43.14 -35.55 -7.3 -3.6202 -14.93 -6.3182 -22.772 -8.3922 -2.7 -0.714 -5.524 -0.804 -8.224 -1.392 -0.97 -0.212 -1.438 -0.59 -1.476 -1.73 -0.188 -5.566 0.162 -11.134 0.59 -16.7 0.456 -5.914 5.954 -5.666 8.308 -12.104 0.17 -0.464 0.462 -0.802 0.844 -1.096 3.618 -2.796 5.626 -6.702 6.706 -11.006 1.542 -6.15 0.494 -11.796 -3.71 -16.784 -1.1 -1.304 -2.614 -1.94 -4.174 -2.656 1.518 -3.374 1.062 -6.7 0.506 -9.994 -0.27 -1.6 -0.854 -3.11 -2.024 -4.26 -4.17 -4.094 -8.768 -7.116 -14.928 -6.62 -2.902 0.232 -0.214 -2.936 -5.144 -6.664 -3.196 -2.416 -6.832 -3.88 -10.838 -3.88 -7.084 0 -13.428 2.348 -18.85 6.916 -2.51 2.114 -2.602 -0.412 -7.97 -0.928 -5.23 -0.502 -9.45 1.726 -13.2 5.018 -3.166 2.78 -5.064 6.282 -5.946 10.374 -0.382 1.77 -1.014 3.286 -2.784 4.132 -1.14 0.546 -2.144 1.398 -3.078 2.234 -1.758 1.574 -3.04 3.416 -3.332 5.862 -0.556 4.68 0.868 8.574 4.47 11.724 0.764 0.668 1.772 1.054 2.278 2.024 -1.392 1.77 -2.372 3.668 -2.446 5.904 -0.29 8.686 7.252 14.018 13.2 14.254 1.138 0.044 1.482 0.42 1.73 1.392 0.822 3.242 2.01 6.374 3.29 9.446 2.586 6.21 6.242 11.64 11.682 15.688 0.252 0.21 0.464 0.422 0.296 0.844 -20.272 2.962 -43.682 13.5422 -60.736 27.4802l2.806 3.448c20.47 -16.426 44.206 -25.1902 57.044 -26.5002 2.826 -0.288 5.65 -0.674 8.646 -0.59 -0.464 3.5422 0.464 6.6222 1.814 9.6582 1.518 3.416 3.838 5.988 7.548 7.084 11.386 3.364 17.924 -5.076 23.574 -15.1822 1.364 -2.438 2.91 -2.742 5.356 -2.362 5.44 0.844 10.708 2.328 15.898 4.1742 8.784 3.126 16.866 6.5 29.224 15.814 11.302 8.52 21.682 17.918 29.52 29.898 9.812 14.996 18.232 35.224 17.29 53.346 -0.494 9.49 -2.328 18.762 -5.694 27.706 -3.044 8.094 -7.702 15.156 -14.212 20.916 -3.87 3.426 -8.44 5.638 -13.114 7.676 -11.17 4.868 -33.906 3.92 -50.184 -6.2 -6.24 -3.88 -12.02 -8.35 -17.08 -13.706 -12.67 -13.412 -14.19 -18.12 -18.554 -25.008 -0.802 -1.264 -0.926 -2.108 -0.042 -3.332 3.716 -5.142 8.214 -9.5 13.2 -13.368 0.926 -0.718 1.856 -0.76 2.91 -0.506 12.494 3.012 15.402 5.048 27.538 9.278 16.522 5.758 28.884 16.346 36.604 21.17 0.754 0.472 1.696 0.894 2.404 0.126 0.77 -0.834 0.044 -1.646 -0.548 -2.276 -2.974 -3.162 -10.654 -9.238 -18.092 -13.58 -1.094 -0.638 -1.674 -1.352 -1.898 -2.742 -1.72 -10.726 -2.522 -21.466 -3.078 -32.26 -0.664 -12.864 0.514 -19.548 -0.674 -23.32 -0.388 -1.23 -2.062 -1.47 -2.742 -0.084 -1.506 3.08 -0.812 20.36 -0.632 23.784 1.48 28.108 4.39 30.202 3.206 31.206 -8.408 -4.404 -12.806 -5.364 -19.99 -8.182 -5.184 -2.032 -10.374 -4.004 -15.814 -5.314 -3.67 -0.884 -7.38 -1.898 -11.26 -0.928 -1.12 -4.402 -1.246 -8.982 -10.036 -18.934 -5.48 -6.202 -13.668 -7.768 -21.044 -4.09 -0.59 0.294 -1.144 0.586 -1.56 1.096 -0.648 0.794 -0.202 1.868 0.928 1.602 1.016 -0.24 1.98 -0.512 2.994 -0.844 7.238 -2.364 12.952 0.416 17.08 5.65 7.506 9.518 6.88 13.71 8.224 16.996 0.308 0.754 0.26 1.314 -0.38 1.898 -5.49 5.016 -5.242 5.314 -6.072 5.272 -2.378 -0.124 -3.46 1.718 -7.254 0.59 -2.16 -0.642 -2.454 -1.438 -1.434 -3.542 1.78 -3.676 5.812 -4.224 4.934 -5.904 -0.55 -1.054 -1.482 -0.608 -2.32 -0.296 -4.162 1.56 -5.126 4.13 -6.662 6.494 -1.898 -1.646 -1.906 -3.504 -1.096 -5.482 0.71 -1.732 1.98 -3.038 3.206 -4.428 0.632 -0.718 1.75 -1.338 1.138 -2.572 -0.394 -0.794 -1.304 -0.584 -2.91 0.548 -1.682 1.188 -3.036 2.656 -4.26 4.554 -0.464 -1.898 -0.392 -2.916 0.464 -4.512 2.612 -4.868 5.074 -6.482 5.65 -7.38 0.46 -0.718 0.126 -1.218 -0.632 -1.35 -0.928 -0.162 -1.734 0.244 -2.446 0.758 -3.674 2.66 -7.504 7.6 -6.706 11.892 0.298 1.602 1.262 2.786 2.278 4.048 0.884 1.098 0.458 3.084 1.602 4.344 0.924 1.016 2.146 1.526 3.332 2.15 1.05 0.554 1.178 2.368 2.488 2.994 3.08 1.474 4.102 1.608 7.422 1.392 -1.76 2.934 -3.636 5.252 -2.15 8.814 3.998 9.578 10.552 17.588 17.628 25.302 4.802 5.234 10.254 9.732 16.068 13.832 10.088 7.112 21.34 10.736 33.526 11.85 5.904 0.54 4.814 -0.76 4.976 5.566 0.292 11.322 -1.192 16.252 -0.252 18.09 0.498 0.974 1.304 1.378 2.362 1.182 0.968 -0.182 1.476 -0.844 1.56 -1.856 0.126 -1.518 0.336 -2.994 0.38 -4.512 0.162 -5.652 0.91 -11.254 0.338 -16.91 -0.39 -3.848 7.838 1.94 27.368 -11.26 0.504 -0.34 1.05 -0.722 1.518 -1.138 13.516 -12.048 17.906 -25.312 20.958 -41.96 1.476 -8.054 1.602 -16.152 0.464 -24.206l0.126 0.084 -0.014 0.012Zm-164.93 -145.4462c-0.384 0.46 -1.012 0.386 -1.56 0.336 -0.844 -0.074 -1.47 -0.51 -2.024 -1.138 -4.096 -4.652 -1.2 -10.784 1.73 -11.134 0.8 -0.096 1.308 0.59 1.054 1.392 0 0.084 -0.084 0.126 -0.126 0.21 -2.15 3.12 -1.03 6.04 0.506 8.898 0.25 0.466 0.882 0.882 0.422 1.434l-0.002 0.002Zm6.242 -16.868 -0.042 -0.042c-0.21 0.548 -0.506 0.97 -1.18 1.012 -1.682 0 -1.922 -1.89 -1.56 -3.542 1.288 -5.882 5.7 -9.562 11.976 -9.236 1.648 0.086 3.466 0.284 5.018 1.476 0.382 0.292 0.802 0.632 0.716 1.138 -0.042 0.674 -0.674 0.51 -1.096 0.59 -1.642 0.312 -3.288 0.6 -4.934 0.802 -4.298 0.528 -7.034 2.972 -8.644 6.874 -0.122 0.296 -0.168 0.632 -0.254 0.928Zm57.816 51.996c-0.506 4.428 -0.316 8.898 -0.338 13.368 -0.006 1.138 -0.246 2.154 -0.802 3.164 -2.498 4.53 -5.476 8.7742 -8.476 12.9462 -2.61 3.63 -6.326 5.514 -10.838 5.44 -2.952 -0.048 -5.408 -1.242 -6.958 -3.88 -1.572 -2.676 -3.116 -5.398 -3.036 -8.6462 0.03 -1.236 0.646 -1.87 1.856 -1.898 7 -0.166 13.238 -2.492 18.724 -6.748 4.298 -3.334 6.086 -8.22 7.506 -13.242 0.57 -2.012 -2.306 -3.506 -3.162 -0.8 -0.532 1.678 -1.232 3.244 -1.898 4.892 -1.752 4.334 -4.718 7.43 -8.898 9.53 -3.37 1.694 -6.832 2.95 -10.626 3.332 -20.162 2.03 -28.854 -26.87 -29.942 -47.104 -0.21 -1.56 -0.302 -3.588 0.716 -5.524 1.466 -2.788 4.134 -3.756 6.706 -1.94 4.472 3.16 9.358 3.738 14.55 2.742 4.468 -0.858 8.812 -2.07 12.694 -4.554 4.088 -2.618 8.184 -1.31 10.248 3.078 3.838 8.162 2.784 15.716 4.512 20.158 0.542 1.394 1.35 2.636 2.994 2.742 3.028 0.194 3.922 -2.858 4.85 -4.554 2.812 -5.14 11.002 -3.242 8.476 1.856 -0.712 1.436 -1.614 2.768 -2.952 3.712 -4.124 2.904 -5.398 7.21 -5.988 11.976l0.084 -0.042 -0.002 -0.004Z" stroke-width="2"></path><path id="vector_4" fill="#191919" d="M190.74 286.218c-1.602 0 -3.626 -0.254 -5.65 -0.76 -0.506 -0.126 -1.048 -0.388 -1.518 -0.674 -0.5 -0.304 -0.848 -0.802 -0.632 -1.392 0.248 -0.676 0.844 -0.506 1.392 -0.422 6.62 0.59 12.968 -0.216 18.808 -3.668 0.212 -0.126 0.422 -0.254 0.632 -0.338 0.716 -0.21 1.554 -1.09 2.15 -0.38 0.75 0.894 0 1.812 -0.632 2.488 -2.282 2.442 -5.23 3.754 -8.434 4.554 -1.856 0.464 -3.754 0.464 -6.156 0.548l0.042 0.042 -0.002 0.002Z" stroke-width="2"></path><path id="vector_5" fill="#191919" d="M194.618 298.87c-0.99 -0.432 -1.326 -2.012 1.138 -2.32 10.936 -1.364 17.348 -6.92 18.512 -5.102 0.634 0.99 -0.806 2.096 -1.898 2.91 -4.42 3.3 -9.572 4.512 -14.928 5.018 -0.966 0 -1.748 -0.036 -2.824 -0.506Z" stroke-width="2"></path><path id="vector_6" fill="#191919" d="M197.064 292.038c-1.69 0 -4.764 -0.218 -4.47 -2.024 0.352 -2.17 5.472 -0.206 14.296 -4.302 1.096 -0.508 2.192 -0.928 3.416 -1.012 0.76 0 1.042 0.414 0.674 1.054 -0.262 0.458 -0.63 0.93 -1.054 1.266 -3.776 2.978 -7.928 5.018 -12.862 4.976v0.042Z" stroke-width="2"></path><path id="vector_7" fill="#191919" d="M238.814 178.6398c-0.38 -0.084 -0.842 -0.088 -1.266 -0.296 -0.798 -0.388 -0.89 -1.186 -0.168 -1.644 1.042 -0.662 4.794 -0.944 7 -6.326 0.424 -1.034 0.54 -2.582 1.856 -2.32 1.134 0.152 1.174 1.746 1.012 2.826 -0.474 3.156 -4.01 6.944 -7.17 7.632 -0.45 0.098 -1.542 0.126 -1.266 0.126l0.002 0.002Z" stroke-width="2"></path><path id="vector_8" fill="#191919" d="M231.898 165.2298c0 1.308 0.676 2.052 2.024 2.108 0.802 0.034 1.562 0.112 2.362 0.21 0.592 0.074 1.142 0.294 1.266 0.886 0.13 0.632 -0.466 0.922 -0.97 1.138 -3.644 1.564 -7.108 -0.632 -7 -4.554 0.052 -1.898 0.35 -3.756 0.59 -5.65 0.076 -0.592 0.296 -1.138 0.97 -1.096 1.254 0.078 0.758 1.384 0.758 6.958Z" stroke-width="2"></path><path id="vector_9" fill="#191919" d="M248.976 146.296c0.886 0.506 1.618 1.23 1.138 2.32 -1.08 2.452 -4.848 -2.354 -9.32 0.296 -0.586 0.346 -1.35 0.802 -1.898 -0.042 -0.464 -0.716 -0.006 -1.398 0.422 -1.94 2.114 -2.676 6.622 -2.368 9.658 -0.634Z" stroke-width="2"></path><path id="vector_10" fill="#191919" d="M223.38 149.7542c-0.168 0.844 -0.672 1.216 -1.518 0.886 -1.554 -0.606 -3.116 -0.498 -4.596 0.254 -1.324 0.672 -2.42 2.446 -3.374 1.728 -0.628 -0.472 -0.514 -1.1 -0.296 -1.728 0.324 -0.932 0.884 -1.73 1.728 -2.192 2.318 -1.27 4.674 -1.204 7.084 -0.254 0.468 0.184 0.97 0.706 0.97 1.308l0.002 -0.002Z" stroke-width="2"></path><path id="vector_11" fill="#191919" d="M216.716 160.2118c0.018 -1.222 0.716 -2.172 1.686 -2.192 1.054 -0.022 2.078 1.392 1.982 2.784 -0.184 2.664 -3.714 2.582 -3.668 -0.592Z" stroke-width="2"></path><path id="vector_12" fill="#191919" d="M246.868 156.964c0 1.35 -0.802 2.404 -1.772 2.404s-1.94 -1.096 -1.94 -2.278c0 -1.222 0.844 -2.32 1.856 -2.362 1.054 -0.044 1.898 0.928 1.856 2.278v-0.042Z" stroke-width="2"></path></g><path id="vector_13" fill="#38A1FF" d="M301.1 69.0384c-0.074 -1.266 -0.38 -1.856 -1.73 -1.94l-102.306 -9.446c-1.94 -0.138 -2.018 0 -2.236 1.856 -1.31 11.18 -6.92 19.73 -16.404 25.598 -7.424 4.592 -15.646 6.074 -24.332 4.428 -2.446 -0.464 -4.804 -1.106 -7.042 -2.15 -1.094 -0.51 -1.726 -0.462 -2.404 0.76 -4.582 8.274 -9.208 16.544 -13.41 25.05 -0.726 1.472 -0.716 1.686 0.674 2.488 26.49 15.29 31.462 53.006 9.7 74.854 -0.506 0.508 -0.97 1.054 -1.518 1.518 -0.8 0.676 -0.722 1.354 -0.126 2.066 1.17 1.4 2.368 2.778 3.584 4.132 3.276 3.6496 35.276 42.6756 36.352 44.8276 1.218 1.994 -1.522 4.612 -4.218 1.434 -5.81 -6.854 -37.416 -45.2836 -38.418 -46.5556 -1.618 -2.054 -1.646 -2.112 -3.754 -0.716 -25.148 16.6496 -61.126 6.2396 -71.944 -25.134 -7 -20.306 1.666 -42.984 17.206 -53.684 2.698 -1.858 2.738 -1.812 1.308 -4.976 -1.104 -2.442 -13.422 -29.6 -14.254 -32.05 -0.844 -2.482 -2.512 -0.19 -8.602 -0.296 -13.242 -0.23 -23.54 -5.73 -30.194 -17.206 -6.966 -12.014 -6.574 -24.288 0.76 -35.93 5.95 -9.44396 14.802 -14.64196 26.02 -15.60396 11.934 -1.022 21.64 3.326 29.436 12.18796 4.262 4.846 6.656 10.622 7.676 16.952 0.306 1.896 0.296 1.9 2.32 1.982 4.326 0.174 31.348 2.68 32.092 2.784 1.648 0.23 1.858 0.086 2.404 -1.518 4.278 -12.566 15.396 -22.226 29.984 -23.32 11.934 -0.894 21.618 3.472 29.35 12.398 4.208 4.858 6.612 10.664 7.548 16.994 0.306 2.064 0.294 2.032 2.278 2.236 9.646 0.99 102.528 9.838 102.98 9.952 0.972 0.244 1.518 -0.21 1.644 -1.18 0.21 -1.602 0.796 -3.08 1.222 -4.596 2.286 -8.106 7.072 -14.48 13.706 -19.526 17.774 -13.518 43.55 -8.32 55.202 9.826 7.544 11.748 7.582 26.2 2.656 36.772 -16.706 35.864 -70.75 26.766 -73.208 -15.266l-0.002 -0.002ZM63.384 157.0084c0 23.532 18.724 43.6916 43.394 43.8576 25.344 0.17 44.28 -19.7776 44.364 -43.6036 0.084 -23.826 -18.976 -43.88 -43.774 -43.984 -25.008 -0.106 -43.858 20.074 -43.942 43.732l-0.042 -0.002Zm62.708 -101.716c0 -0.97 -0.064 -1.898 0 -2.868s-0.212 -1.47 -1.266 -1.56c-2.784 -0.238 -16.996 -1.676 -21.338 -2.108 -3.712 -0.37 -7.47 -0.522 -11.134 -1.308 -1.192 -0.256 -1.148 0.998 -1.266 2.066 -1.412 12.902 -7.968 22.184 -19.482 28.044 -2.488 1.266 -2.53 1.18 -1.222 3.796 1.168 2.724 8.756 19.064 13.664 29.942 1.258 2.786 1.26 2.774 4.132 1.518 10.106 -4.42 20.53 -5.116 31.248 -2.404 4.428 1.12 6.344 2.994 7.338 0.76 0.04 -0.09 8.918 -15.94 13.958 -24.46 1.098 -1.854 1.348 -1.854 -0.674 -3.374 -9.322 -6.996 -13.916 -16.488 -14.042 -28.086l0.084 0.042Zm213.51 47.274c18.976 -0.13 33.854 -14.844 34.074 -33.358 0.242 -20.284 -15.308 -34.714 -33.778 -34.918 -19.736 -0.218 -35.008 15.688 -34.664 34.96 0.332 18.556 15.898 33.442 34.37 33.314l-0.002 0.002ZM56.72 77.3884c16.994 0.254 30.748 -13.41 30.868 -30.194 0.132 -18.302 -14.338 -31.06796 -30.406 -31.20596 -17.88 -0.154 -31.548 14.67596 -31.122 31.71196 0.418 16.7 14.886 30.026 30.658 29.73v-0.042h0.002Zm103.614 9.066c17.124 -0.04 30.4 -13.494 30.826 -28.972 0.584 -21.254 -16.194 -32.358 -30.32 -32.472 -17.964 -0.144 -31.706 15.054 -31.164 31.67 0.556 17.036 15.178 29.81 30.658 29.774Z" stroke-width="2"></path><g id="profile 1"><path id="vector_14" fill="#191919" d="M137.006 157.9718c-1.526 -4.912 -4.28 -4.816 -5.642 -11.648 -0.498 -2.652 -0.208 -5.394 -0.502 -8.072 -0.712 -6.8 -4.448 -11.352 -10.802 -13.162 -5.07 -1.444 -10.958 -2.278 -16.318 2.376 -2.074 -2.11 -4.782 -2.286 -7.18 -2.176 -3.248 0.122 -6.268 1.216 -9.228 3.344 -3.296 2.326 -5.158 5.526 -5.692 9.784 -0.71 5.988 1.656 8.924 -1.342 13.318 -2.992 4.384 -6.342 4.786 -7.676 10.474 -0.888 3.718 0.63 5.874 4.396 6.23 0.688 0.082 0.896 0.106 1.092 0.724 0.906 2.716 3.074 3.436 5.812 3.406 1.168 -0.012 2.212 -0.044 3.154 0.922 0.832 0.854 2.228 1.296 3.592 1.102 2.652 -0.398 5.09 0.92 7.726 0.972 0.146 4.152 -4.36 4.41 -13.116 9.82 -1.426 0.878 -0.286 2.934 1.262 2.296 4.21 -2.124 8.05 -3.864 11.808 -6.588 3.082 4.506 10.742 6.812 14.74 1.224 0.6386 -0.8828 1.4906 -1.2046 2.556 -0.966 5.272 1.17 13.528 4.532 13.528 1.474 0.05 -1.812 -1.748 -1.974 -2.422 -2.036 -3.334 -0.334 -6.504 -1.428 -9.748 -2.146 -3.922 -0.872 -3.936 -0.88 -3.936 -4.886 0.248 -0.294 3.728 0.926 6.086 -1.928 0.216 -0.27 0.544 -0.232 1.024 -0.144 3.196 0.558 5.286 -1.942 5.634 -1.942 2.894 0.614 4.794 -0.942 7.13 -2.268 3.792 -2.148 5.274 -5.612 4.06 -9.5l0.004 -0.004Zm-34.506 11.686c-0.358 0.772 0.264 1.254 0.638 1.546 2.168 1.622 4.692 1.136 7.216 0.89 0.016 3.974 -0.058 5.4 0.22 6.368 0.26 0.906 0.83 1.456 0.234 2.13 -1.228 1.39 -1.81 2.034 -3.046 2.134 -2.524 0.2 -4.7 -0.45 -6.664 -2.004 -0.716 -0.556 -0.884 -1.118 -0.58 -1.93 3.618 -9.196 -3.66 -15.632 -4.968 -19.642 -0.736 -2.3 -2.812 -1.476 -4.088 -1.598 -1.254 -0.12 -1.62 -0.55 -1.508 -1.656 0.106 -1.082 0.332 -1.374 1.724 -1.374 3.166 0 2.876 -1.208 3.2 -4.786 0.11 -1.182 0.222 -2.408 0.222 -3.602 0.034 -1.058 0.43 -1.438 1.626 -1.566 0.81 -0.084 2.03 0.428 2.704 -0.506 0.574 -0.81 0.162 -1.762 0.136 -2.964 -0.014 -0.672 0.026 -0.932 0.51 -1.002 0.742 -0.118 0.84 0.572 1.062 1.344 0.668 2.176 0.348 3.362 3 2.954 1.278 -0.27 1.034 -1.018 1.072 -2.004 0.01 -0.362 -0.01 -0.968 0.342 -1.028 0.742 -0.122 0.798 1.076 1.27 2.9 0.036 0.132 0.154 0.224 0.292 0.224 3.166 0 6.444 0.084 9.7 0 1.114 0 1.406 0.256 1.386 1.292 -0.02 1.058 0.092 2.156 0.212 3.128 0.188 1.446 0.746 1.954 2.274 1.558 4.462 -1.202 5.806 0.838 3.762 2.202 -1.186 0.79 -2.368 1.23 -3.61 1.342 -2.36 0.176 -2.526 0.33 -2.97 2.736 -0.698 4.042 -2.07 7.132 -4.316 9.72 -2.152 2.454 -4.878 3.424 -8.554 3.064 -0.612 -0.068 -2.028 -0.828 -2.498 0.13Z" stroke-width="2"></path><path id="vector_15" fill="#191919" d="M109.13 148.7822c-0.216 -0.716 -0.616 -1.074 -1.13 -0.968 -0.572 0.08 -0.988 0.538 -0.846 1.476 0.198 1.306 0.652 2.522 1.114 3.692 0.4654 1.2426 0.1926 2.318 -0.818 3.226 -0.448 0.448 -0.744 0.768 -0.482 1.346 0.674 1.52 4.166 0.802 4.202 -2.778 0.016 -1.672 -1.552 -4.164 -2.038 -5.992l-0.002 -0.002Z" stroke-width="2"></path><path id="vector_16" fill="#191919" d="M107.318 160.1656c-4.36 0.078 -3.54 -1.814 -4.708 -2.022 -0.274 -0.046 -0.568 0.032 -0.822 0.23 -0.548 0.426 -0.356 1.004 -0.226 1.39 0.836 2.424 3.908 3.15 6.106 1.85 1.674 -0.992 0.482 -1.46 -0.348 -1.446l-0.002 -0.002Z" stroke-width="2"></path><path id="vector_17" fill="#191919" d="M102.176 149.8802c0.038 -0.054 0.054 -0.12 0.05 -0.186 -0.058 -1.002 -0.57 -1.624 -1.436 -1.756 -2.482 -0.354 -2.656 3.656 -0.178 3.656 0.838 0 1.482 -0.842 1.564 -1.714Z" stroke-width="2"></path><path id="vector_18" fill="#191919" d="M114.92 149.044c-0.106 -0.9 -0.676 -1.412 -1.582 -1.362 -0.864 0.048 -1.402 0.634 -1.376 1.582 0.06 2.242 3.216 2.24 2.958 -0.22Z" stroke-width="2"></path></g><g id="profile 4"><path id="vector_19" fill="#191919" d="M360.034 76.0844c-4.56 -10.06 -0.402 -12.802 -4.728 -21.182 -1.572 -3.056 -4.03 -4.586 -7.522 -4.674 -2.164 0 0.028 -1.706 -4.212 -4.71 -6.346 -4.58 -18.448 -5.816 -21.202 1.338 -1.31 3.414 0.456 7.476 2.974 9.314 0.86 0.608 1.092 1.226 0.89 2.354 -0.452 2.29 -0.818 4.75 -0.466 7.226 0.516 3.616 -0.734 6.652 -2.156 9.386 -1.886 3.37 -3.154 4.556 -0.236 6.388 2.466 1.544 8.33 2.778 10.414 2.554 0.446 -0.052 0.52 -0.046 0.538 0.332 0.108 1.606 -1.528 0.824 -8.572 3.012 -2.582 0.802 -2.78 0.826 -3.95 1.118 -0.754 0.188 -2.018 0.5 -1.726 1.856 0.096 0.468 0.296 0.8 0.598 0.984 0.64 0.394 1.49 0.01 2.124 -0.12 3.346 -0.744 6.834 -1.434 10.188 -2.496 0.768 -0.244 1.156 -0.328 1.754 0.336 3.476 3.876 9.152 3.396 12.024 -0.874 0.414 -0.602 0.562 -0.654 1.14 -0.364 0.202 0.098 8.56 4.122 9.638 4.122 1.12 0 1.374 -1.466 0.582 -2.058 -1.95 -1.462 -7.24 -3.6 -9.518 -4.468 -0.604 -0.232 -0.856 -0.374 -0.82 -0.83 0.028 -0.354 0.112 -0.384 0.618 -0.362 2.074 0.094 6.592 -1.27 9.408 -2.47 2.786 -1.202 3.56 -2.706 2.22 -5.712h-0.002Zm-23.06 3.848c2.358 0.05 5.482 -0.032 6.988 -1.842 0.796 -0.92 0.12 -2.466 -1.222 -1.718 -2.79 1.638 -5.714 0.876 -8.54 0.138 -1.592 -0.446 -2.886 -1.506 -3.958 -3.24 -2.62 -4.326 -2.13 -10.072 -1.714 -15.096 6.238 1.8 11.582 0.09 11.964 0.424 0.098 0.082 0.092 0.33 0.05 0.378 -0.028 0.032 -0.114 0.066 -0.266 0.066 -0.546 0 -0.212 0.058 -1.146 0.174 -1.04 0.128 -1.856 0.392 -1.682 1.56 0.172 1.212 1.868 0.636 2.618 0.636 2.668 0 1.848 1.79 4.284 3.688 1.164 0.924 2.614 2.074 4.384 0.542 0.486 -0.404 1.612 -0.494 2.24 -0.028 0.606 0.452 0.444 1.22 0.204 1.782 -0.478 1.06 -1.336 1.658 -2.776 1.938 -1.93 0.358 -2.214 0.544 -2.352 2.594 -0.25 3.724 -0.462 7.57 -0.632 11.432 -0.154 3.098 -0.764 5.302 -3.76 5.876 -1.672 0.294 -3.27 -0.222 -4.824 -1.462 -1.16 -0.924 0.342 -3.446 0.138 -7.844l0.002 0.002Z" stroke-width="2"></path><path id="vector_20" fill="#191919" d="M335.532 67.8986c-1.072 -0.68 -1.072 -0.69 -0.498 -2.21 0.652 -1.728 -0.318 -2.338 -1.09 -1.356 -0.194 0.248 -0.928 1.214 -1.11 1.438 -0.412 0.51 -1.4 1.684 -0.192 2.89 0.694 0.692 1.556 0.75 2.46 0.324 0.676 -0.318 1.158 -0.624 0.428 -1.086h0.002Z" stroke-width="2"></path><path id="vector_21" fill="#191919" d="M333.518 61.0848c0.322 -0.904 -0.484 -1.28 -0.85 -1.434 -1.174 -0.494 -2.242 -0.488 -3.214 -0.084 -1.902 0.762 -0.9 2.56 0.54 2.084 1.254 -0.396 1.97 -0.006 2.172 0.014 0.464 0.042 1.1 0.102 1.352 -0.58Z" stroke-width="2"></path><path id="vector_22" fill="#191919" d="M339.972 67.8704c-0.456 -0.072 -0.65 0.51 -0.866 0.864 -0.692 1.136 -1.394 1.922 -2.6 2.08 -0.942 0.186 -0.82 1.41 -0.046 1.556 1.284 0.244 2.422 0.112 3.292 -0.95 0.44 -0.548 1.042 -1.3 0.88 -2.236 -0.152 -0.906 -0.332 -1.26 -0.66 -1.314Z" stroke-width="2"></path><path id="vector_23" fill="#191919" d="M330.62 62.624c-1.566 0 -1.86 2.708 0 2.708 1.648 0 1.422 -2.708 0 -2.708Z" stroke-width="2"></path><path id="vector_24" fill="#191919" d="M338.924 63.83c0.114 1.664 2.364 1.698 2.412 0.286 0.062 -1.782 -2.42 -1.978 -2.412 -0.286Z" stroke-width="2"></path></g><g id="profile 2"><path id="vector_25" fill="#191919" d="M76.56 63.576c-1.406 -1.124 -5.546 -3.556 -8.026 -4.352 -1.088 -0.352 -1.436 -0.876 -1.436 -2.162 0 -2.876 0.114 -5.992 0.336 -9.256 0.074 -1.076 0.336 -1.862 1.41 -2.458 1.342 -0.766 1.956 -1.646 1.878 -2.69 -0.226 -2.646 2.904 -6.564 0.11 -10.236 -0.598 -0.784 -0.866 -1.508 -0.954 -2.58 -0.268 -4.248 -4.27 -6.5 -7.748 -5.37 -0.474 0.154 -0.922 0.302 -1.318 0.242 -0.672 -0.1 -1.024 -1.322 -1.916 -1.858 -2.728 -1.638 -5.806 -0.908 -8.092 1.254 -0.444 0.416 -0.71 0.67 -1.376 0.336 -4.422 -2.168 -9.942 3.676 -8.858 8.266 0.254 1.064 0.648 2.228 1.666 2.81 2.004 1.072 -0.582 1.484 0.222 12.662 0.348 4.948 2.696 7.874 7.382 9.206 0.978 0.292 1.134 0.62 1.134 1.526 0 1.54 -0.744 1.932 -6.052 4.47 -1.72 0.824 -4.03 1.904 -5.296 2.88 -0.964 0.722 -0.222 2.2 0.782 2.2 0.412 0 1.198 -0.31 1.594 -0.508 2.602 -1.238 5.292 -2.52 7.94 -3.884 0.734 -0.386 0.982 -0.518 1.62 0.188 3.77 4.166 10.88 3.362 13.762 -1.392 0.296 -0.482 0.58 -0.996 0.89 -1.61 0.904 0.216 1.698 0.64 2.476 1.042 2.242 1.16 4.426 2.16 6.286 3.442 0.764 0.528 1.602 0.458 2.07 -0.344 0.372 -0.6 0.194 -1.266 -0.488 -1.826l0.002 0.002Zm-12.736 -3.214c-1.582 3.686 -6.272 5.068 -9.552 2.904 -1.38 -0.92 -0.984 -1.706 -1.052 -4.398 -0.0186 -0.608 0.5074 -1.0126 1.578 -1.214 1.706 -0.34 3.116 -0.864 4.32 -1.6 0.568 -0.35 1.166 -0.704 1.534 -1.332 0.178 -0.304 0.526 -0.944 -0.066 -1.47 -0.388 -0.336 -0.78 -0.208 -1.224 0.05 -3.292 1.8 -5.362 3.124 -9.982 1.912 -5.436 -1.464 -5.1 -9.02 -4.712 -14.742 0.266 -3.944 0.928 -5.78 4.502 -6.178 3.544 -0.416 6.696 -0.334 9.642 0.248 3.322 0.716 3.702 1.2 4.338 4.954 0.15 0.886 0.32 1.892 1.114 2.758 0.084 0.092 0.216 0.122 0.33 0.078 1.854 -0.724 3.166 -1.606 3.972 -0.218 0.288 0.516 0.162 0.982 -0.386 1.598 -0.318 0.358 -0.572 0.572 -0.784 0.624 -2.06 0.588 -2.166 2.354 -2.242 3.646 -0.432 8.014 0.218 8.778 -1.326 12.38h-0.004Z" stroke-width="2"></path><path id="vector_26" fill="#191919" d="M52.422 45.5482c-1.206 -0.18 -1.182 -0.768 -1.044 -1.884 0.222 -1.81 0.922 -3.908 -0.428 -4.104 -1.354 -0.222 -1.268 1.434 -1.474 2.8 -0.136 0.924 -0.28 1.878 -0.306 2.836 -0.1 1.848 1.858 2.88 3.442 1.92 0.86 -0.49 0.664 -1.448 -0.188 -1.57l-0.002 0.002Z" stroke-width="2"></path><path id="vector_27" fill="#191919" d="M57.046 46.4122c-0.614 -0.24 -1.822 2.33 -4.032 2.552 -0.978 0.122 -1.434 1.93 0.744 1.93s3.592 -1.89 3.47 -4.22c-0.006 -0.116 -0.076 -0.216 -0.184 -0.262h0.002Z" stroke-width="2"></path><path id="vector_28" fill="#191919" d="M58.994 36.0084c-0.85 -0.566 -1.686 -0.982 -3.468 -0.356 -1.762 0.62 -1.018 2.092 -0.096 2.014 1.2 -0.1 0.892 -0.34 2.366 0.244 0.788 0.312 1.548 0.564 1.946 -0.396 0.304 -0.814 -0.354 -1.244 -0.748 -1.506Z" stroke-width="2"></path><path id="vector_29" fill="#191919" d="M49.824 37.0276c0.06 -1.322 -2.684 -1.476 -3.866 -0.856 -1.42 0.71 -1.176 2.294 -0.064 2.294 0.382 0 0.748 -0.19 1.146 -0.39 0.252 -0.126 0.108 -0.08 1.4 -0.074 1.248 -0.112 1.374 -0.776 1.382 -0.976l0.002 0.002Z" stroke-width="2"></path><path id="vector_30" fill="#191919" d="M46.888 39.7636c-0.93 0 -1.39 0.662 -1.39 1.61 0 0.834 0.486 1.354 1.286 1.354 1.644 -0.088 1.772 -2.964 0.104 -2.964Z" stroke-width="2"></path><path id="vector_31" fill="#191919" d="M57.164 39.6418c-1.68 0.104 -1.578 2.792 0.106 2.792 0.346 0 1.252 -0.178 1.184 -1.502 -0.058 -1.124 -0.734 -1.316 -1.29 -1.29Z" stroke-width="2"></path></g><g id="profile 3"><path id="vector_32" fill="#191919" d="M176.304 75.5496c-2.568 -1.066 -4.9 -2.626 -7.796 -3.014 -1.562 -0.186 -1.816 -0.636 -1.47 -2.17 0.132 -0.63 0.574 -0.71 1.152 -1.018 2.42 -1.25 4.05 -3.244 5.08 -6.284 1.862 -5.502 1.47 -15.282 0.772 -20.504 -0.7 -5.404 -3.378 -8.892 -7.962 -10.368 -6.792 -2.22 -15.272 -0.552 -18.824 5.536 -2.692 4.708 -3.282 9.822 -1.628 15.166 0.176 0.57 0.404 1.114 0.208 1.86 -0.852 3.37 0.142 4.728 3.478 5.344 1.826 0.358 1.926 0.466 2.124 2.314 0.292 2.414 0.348 4.98 0.538 6.416 0.334 2.614 -0.026 2.978 -2.266 3.514 -1.708 0.408 -4.986 1.78 -6.816 3.064 -1.006 0.618 -1.1 1.338 -0.688 1.978 0.668 1.034 1.662 0.466 2.094 0.222 1.498 -0.894 3.134 -1.584 4.716 -2.252 3.854 -1.626 3.452 -1.976 4.634 -0.478 2.886 3.69 8.424 3.362 11.56 0.764 0.964 -0.804 1.766 -0.782 2.756 -0.494 2.306 0.716 3.66 1.356 5.312 2.202 4.156 2.126 4.97 -0.988 3.03 -1.794l-0.004 -0.004Zm-19.656 -11.3c-0.112 -0.246 -0.486 -0.264 -0.598 -0.004 -0.572 1.34 -0.252 1.934 0.882 2.872 1.662 1.416 3.616 2.444 5.96 3.134 0.706 0.234 1.492 -0.248 1.568 0.458 0.14 1.274 0.204 2.036 -0.392 2.732 -2.22 2.616 -7.622 2.154 -9.334 -0.836 -0.416 -0.76 0.282 -1.812 -0.684 -10.096 -0.386 -3.21 -1.126 -4.228 -4.504 -4.836 -0.998 -0.18 -1.608 -0.336 -1.608 -1.284 0 -0.92 0.338 -1.386 1.014 -1.386 3.97 -0.09 5.208 -3.074 6.054 -5.856 1.738 -5.192 -0.344 -4.802 4.322 -3.782 3.01 0.662 5.554 1.11 9.16 -0.206 2.326 -0.856 2.682 -0.636 3.274 1.772 1.29 5.316 1.008 10.622 -0.834 15.768 -2.47 6.862 -8.912 6.656 -14.284 1.554l0.004 -0.004Z" stroke-width="2"></path><path id="vector_33" fill="#191919" d="M165.366 50.1032c-0.146 -0.388 -0.404 -1.11 -1.252 -0.832 -1.51 0.534 -0.018 2.348 0.806 4.91 0.266 0.74 0.332 1.016 -0.268 1.432 -0.262 0.182 -0.594 0.406 -0.642 0.778 -0.03 0.218 0.046 0.44 0.228 0.654 0.47 0.552 1.002 0.432 1.65 0.134 0.736 -0.338 1.24 -0.586 1.24 -1.89 0 -2.034 -1.088 -3.402 -1.764 -5.188l0.002 0.002Z" stroke-width="2"></path><path id="vector_34" fill="#191919" d="M166.216 59.7396c-2.768 0.42 -4.698 0.518 -6.096 -1.452 -0.524 -0.79 -1.6 -0.068 -1.376 0.812 0.698 2.04 2.548 3.01 4.58 3.01 1.074 0 2.172 -0.406 3.234 -1.836 0.09 -0.052 0.148 -0.15 0.148 -0.258v-0.042c0 -0.262 -0.302 -0.39 -0.49 -0.234Z" stroke-width="2"></path><path id="vector_35" fill="#191919" d="M158.522 49.244c0.828 -0.226 1.768 -0.482 2.692 -1.08 0.188 -0.122 0.18 -0.392 -0.004 -0.506 -1.892 -1.18 -3.296 -0.658 -4.534 0.084 -0.608 0.378 -0.816 0.814 -0.628 1.286 0.126 0.35 0.344 0.508 0.502 0.58 0.46 0.206 0.674 -0.006 1.972 -0.364Z" stroke-width="2"></path><path id="vector_36" fill="#191919" d="M170.966 47.0476c-0.956 -0.948 -2.026 -1.31 -3.094 -0.982 -0.33 0.102 -1.008 0.334 -1.006 1.016 -0.128 1.406 2.38 1.288 3.776 1.262 0.554 -0.01 0.832 -0.014 0.942 -0.284 0.116 -0.286 -0.116 -0.514 -0.618 -1.012Z" stroke-width="2"></path><path id="vector_37" fill="#191919" d="M159.874 52.0074c-0.154 -1.304 -0.932 -1.502 -1.424 -1.486 -0.878 0.088 -1.35 0.628 -1.324 1.622 0.026 1.04 0.558 1.676 1.596 1.59 0.832 -0.088 1.218 -0.664 1.152 -1.726Z" stroke-width="2"></path><path id="vector_38" fill="#191919" d="M169.57 49.3398c-0.032 0 -0.06 0.004 -0.09 0.014 -0.886 0.276 -0.886 1.038 -0.886 1.594 0 1.48 1.39 1.526 1.934 0.88 0.54 -0.644 0.452 -2.488 -0.958 -2.488Z" stroke-width="2"></path></g></g></svg>